<svg id="Component_1_1" data-name="Component 1 – 1" xmlns="http://www.w3.org/2000/svg" xmlns:xlink="http://www.w3.org/1999/xlink" width="30" height="34.37" viewBox="0 0 30 34.37">
  <defs>
    <linearGradient id="linear-gradient" x1="0.5" y1="1.001" x2="0.5" y2="0.001" gradientUnits="objectBoundingBox">
      <stop offset="0" stop-color="#ff4c0d"/>
      <stop offset="1" stop-color="#fc9502"/>
    </linearGradient>
  </defs>
  <g id="fire" transform="translate(0 0.005)">
    <path id="path-1" d="M29.937,22.226c-.334,6.752-6.9,12.14-14.96,12.14C6.705,34.365,0,28.5,0,21.686a11.291,11.291,0,0,1,1.593-5.8A28.357,28.357,0,0,0,3.505,11.84c.188-.58.553-1.5,1.593,0A4.5,4.5,0,0,1,5.736,14,12.919,12.919,0,0,0,9.559,9.682c2.259-4.153.457-6.636-.159-8.363C9.187.722,9.053-.351,10.515.106A21.265,21.265,0,0,1,18,5.366a22.221,22.221,0,0,1,3.983,6.879,6.371,6.371,0,0,0,1.275-2.023c.377-1.168.382-2.325,1.593-1.079a21.986,21.986,0,0,1,3.824,5.53A15.322,15.322,0,0,1,29.937,22.226Z" transform="translate(0 0)" fill-rule="evenodd" fill="url(#linear-gradient)"/>
  </g>
  <g id="Group_1" data-name="Group 1" transform="translate(5.2 11.37)">
    <path id="Path_1" data-name="Path 1" d="M10,4A9.941,9.941,0,0,0,.8,10,9.941,9.941,0,0,0,10,16a9.941,9.941,0,0,0,9.2-6A9.941,9.941,0,0,0,10,4Zm0,9.5A3.5,3.5,0,1,1,13.5,10,3.543,3.543,0,0,1,10,13.5Zm0-2A1.5,1.5,0,1,0,8.5,10,1.5,1.5,0,0,0,10,11.5Z" fill="#ffe7a5"/>
    <path id="Path_2" data-name="Path 2" d="M14.5,2.5h3v3a.75.75,0,0,1-1.5,0V4.56L12.78,7.78a.75.75,0,1,1-1.06-1.06L14.94,3.5H14.5a.75.75,0,1,1,0-1.5Z" fill="#ffe7a5"/>
  </g>
</svg>
