<svg width="25" height="13" viewBox="0 0 25 13" xmlns="http://www.w3.org/2000/svg">
  <!-- Top Green Stripe -->
  <rect width="25" height="4.33" y="0" fill="#007A3D" />
  
  <!-- Middle White Stripe -->
  <rect width="25" height="4.33" y="4.33" fill="#FFFFFF" />
  
  <!-- Bottom Black Stripe -->
  <rect width="25" height="4.34" y="8.66" fill="#000000" />
  
  <!-- Larger Red Stars moved toward top of white band -->
  <!-- Top of white band is at y = 4.33, stars now centered around y ≈ 5.1 -->
  <polygon points="5.5,4.8 5.9,5.8 7.0,5.8 6.1,6.5 6.5,7.5 5.5,6.85 4.5,7.5 4.9,6.5 4.0,5.8 5.1,5.8" fill="#CE1126"/>
  <polygon points="12.5,4.8 12.9,5.8 14.0,5.8 13.1,6.5 13.5,7.5 12.5,6.85 11.5,7.5 11.9,6.5 11.0,5.8 12.1,5.8" fill="#CE1126"/>
  <polygon points="19.5,4.8 19.9,5.8 21.0,5.8 20.1,6.5 20.5,7.5 19.5,6.85 18.5,7.5 18.9,6.5 18.0,5.8 19.1,5.8" fill="#CE1126"/>
</svg>
