<svg xmlns="http://www.w3.org/2000/svg" width="16" height="16" viewBox="188 637 16 16"><defs><clipPath id="xd-cardVerified-c33"><rect transform="matrix(1,0,0,1,0,0.11)" x="0" y="0" width="16" height="16" rx="0" fill="rgb(0,0,0)"/></clipPath></defs><g transform="matrix(1,0,0,1,-1,-29)"><g transform="matrix(1,0,0,1,189,665.88)"><g clip-path="url(#xd-cardVerified-c33)"><g transform="matrix(1,0,0,1,-0.59,-0.75)"><path d="M 9.75 1.05 L 10.78 1.82 C 11.06 2.03 11.36 2.14 11.71 2.16 L 13.00 2.23 C 13.77 2.28 14.40 2.80 14.57 3.55 L 14.87 4.81 C 14.95 5.15 15.11 5.43 15.36 5.67 L 16.30 6.55 C 16.87 7.08 17.01 7.88 16.66 8.57 L 16.08 9.72 C 15.92 10.04 15.86 10.35 15.91 10.70 L 16.06 11.98 C 16.15 12.75 15.74 13.45 15.03 13.76 L 13.85 14.27 C 13.52 14.40 13.28 14.61 13.09 14.90 L 12.38 15.98 C 11.96 16.63 11.19 16.91 10.45 16.68 L 9.22 16.31 C 8.88 16.21 8.56 16.21 8.23 16.31 L 6.99 16.68 C 6.25 16.91 5.48 16.63 5.06 15.98 L 4.36 14.90 C 4.16 14.61 3.92 14.40 3.60 14.27 L 2.41 13.76 C 1.70 13.45 1.29 12.75 1.38 11.98 L 1.54 10.70 C 1.58 10.35 1.52 10.04 1.37 9.72 L 0.78 8.57 C 0.44 7.88 0.58 7.08 1.14 6.55 L 2.08 5.67 C 2.34 5.43 2.50 5.15 2.58 4.81 L 2.87 3.55 C 3.05 2.80 3.67 2.28 4.44 2.23 L 5.73 2.16 C 6.08 2.14 6.38 2.03 6.66 1.82 L 7.69 1.05 C 8.31 0.59 9.13 0.59 9.75 1.05 Z M 8.06 9.17 L 6.94 8.05 C 6.65 7.76 6.18 7.76 5.89 8.05 C 5.60 8.34 5.60 8.82 5.89 9.11 L 7.54 10.75 C 7.83 11.04 8.30 11.04 8.59 10.75 C 9.58 9.76 10.57 8.76 11.55 7.76 C 11.84 7.47 11.84 7.00 11.55 6.71 C 11.26 6.42 10.79 6.42 10.50 6.71 L 8.06 9.17 Z M 8.72 3.19 C 7.19 3.19 5.81 3.81 4.81 4.82 C 3.80 5.82 3.18 7.20 3.18 8.73 C 3.18 10.26 3.80 11.65 4.81 12.65 C 5.81 13.65 7.19 14.27 8.72 14.27 C 10.25 14.27 11.64 13.65 12.64 12.65 C 13.64 11.65 14.26 10.26 14.26 8.73 C 14.26 7.20 13.64 5.82 12.64 4.82 C 11.64 3.81 10.25 3.19 8.72 3.19 Z M 12.25 5.20 C 11.35 4.30 10.10 3.74 8.72 3.74 C 7.34 3.74 6.09 4.30 5.19 5.20 C 4.28 6.10 3.73 7.35 3.73 8.73 C 3.73 10.11 4.28 11.36 5.19 12.26 C 6.09 13.17 7.34 13.73 8.72 13.73 C 10.10 13.73 11.35 13.17 12.25 12.26 C 13.16 11.36 13.72 10.11 13.72 8.73 C 13.72 7.35 13.16 6.10 12.25 5.20 Z" fill-rule="nonzero" fill="rgb(56,140,255)"/></g></g></g></g></svg>