<svg xmlns="http://www.w3.org/2000/svg" width="16.91" height="20.88" viewBox="-15965.5 -23875.4 16.91 20.88"><defs></defs><g transform="matrix(1 0 0 1 -15965.5 -23875.4)"><g transform="matrix(1 0 0 1 -83.407 1.78842e-06)"><path d="M 91.72583770751953 10.27054309844971 C 93.01568603515625 10.27054309844971 94.13259887695312 9.764482498168945 95.04518127441406 8.766024589538574 C 95.95777893066406 7.76772928237915 96.42041778564453 6.546255111694336 96.42041778564453 5.135107517242432 C 96.42041778564453 3.724449396133423 95.95777893066406 2.502811193466187 95.0450439453125 1.504191040992737 C 94.13230133056641 0.5060589909553528 93.01554107666016 -1.788422537174483e-06 91.72583770751953 -1.788422537174483e-06 C 90.43582916259766 -1.788422537174483e-06 89.31922149658203 0.5060589909553528 88.40663146972656 1.504353523254395 C 87.49402618408203 2.502648591995239 87.03125762939453 3.724286794662476 87.03125762939453 5.135107517242432 C 87.03125762939453 6.546255111694336 87.49402618408203 7.767892837524414 88.40676879882812 8.766188621520996 C 89.31951141357422 9.764318466186523 90.43627166748047 10.27054309844971 91.72583770751953 10.27054309844971 Z M 91.72583770751953 10.27054309844971" fill="rgb(136,136,229)" fill-opacity="1"/></g><g transform="matrix(1 0 0 1 6.33299e-08 -237.454)"><path d="M 16.8657169342041 253.4124145507812 C 16.83835601806641 252.9969482421875 16.78300476074219 252.5437316894531 16.7015266418457 252.0651550292969 C 16.61927795410156 251.5830688476562 16.51337432861328 251.1272277832031 16.3865966796875 250.7106323242188 C 16.25564575195312 250.2800598144531 16.07754135131836 249.8548583984375 15.85738468170166 249.4473571777344 C 15.62887859344482 249.0244445800781 15.36048412322998 248.6561584472656 15.05931282043457 248.3530883789062 C 14.74438285827637 248.0360412597656 14.35879707336426 247.7811279296875 13.912917137146 247.5952453613281 C 13.468581199646 247.4102478027344 12.97616386413574 247.3165588378906 12.44942283630371 247.3165588378906 C 12.24256229400635 247.3165588378906 12.04250240325928 247.4058837890625 11.6561450958252 247.6705627441406 C 11.41836261749268 247.8336791992188 11.14022636413574 248.0223999023438 10.8297815322876 248.2310791015625 C 10.56432437896729 248.4090576171875 10.2047119140625 248.5758056640625 9.760532379150391 248.7267150878906 C 9.327173233032227 248.8742980957031 8.887166023254395 248.9490966796875 8.452879905700684 248.9490966796875 C 8.018595695495605 248.9490966796875 7.578742980957031 248.8742980957031 7.144921779632568 248.7267150878906 C 6.701204299926758 248.575927734375 6.341593265533447 248.4092407226562 6.076445579528809 248.2312622070312 C 5.768936157226562 248.0244750976562 5.490647315979004 247.8357849121094 5.249308586120605 247.6703491210938 C 4.86341381072998 247.4057312011719 4.663200378417969 247.3164367675781 4.456338405609131 247.3164367675781 C 3.929444313049316 247.3164367675781 3.437180995941162 247.4102478027344 2.993000984191895 247.5953674316406 C 2.547428607940674 247.7809753417969 2.161689043045044 248.035888671875 1.846449136734009 248.3532409667969 C 1.545433044433594 248.6564636230469 1.276883602142334 249.0245666503906 1.048686623573303 249.4473571777344 C 0.8286834955215454 249.8548583984375 0.6505782604217529 250.2799072265625 0.5194732546806335 250.7108154296875 C 0.3928515315055847 251.1274108886719 0.2869470417499542 251.5830688476562 0.2046971172094345 252.0651550292969 C 0.123220220208168 252.5431213378906 0.06787160038948059 252.9964599609375 0.04050649702548981 253.4129028320312 C 0.01360519044101238 253.8208618164062 -6.294877152868139e-08 254.2442626953125 -6.294877152868139e-08 254.6719665527344 C -6.294877152868139e-08 255.784912109375 0.3362660706043243 256.6859436035156 0.9993675351142883 257.3504028320312 C 1.654275059700012 258.0061340332031 2.52083683013916 258.3388061523438 3.574625492095947 258.3388061523438 L 13.33206367492676 258.3388061523438 C 14.3858528137207 258.3388061523438 15.25210571289062 258.0063171386719 15.90716648101807 257.3504028320312 C 16.5704231262207 256.6864318847656 16.90669059753418 255.7852478027344 16.90669059753418 254.6718139648438 C 16.90653610229492 254.2422180175781 16.89277458190918 253.8184204101562 16.8657169342041 253.4124145507812 Z M 16.8657169342041 253.4124145507812" fill="rgb(136,136,229)" fill-opacity="1"/></g></g></svg>