<svg xmlns="http://www.w3.org/2000/svg" width="25" height="25" viewBox="202 500 25 25"><defs></defs><g transform="translate(2788 24835)"><g transform="matrix(1 0 0 1 -2967 -24407)"><g transform="matrix(1 0 0 1 48 -285)"><g transform="matrix(1 0 0 1 338.001 362)"><path d="M 4.374629497528076 6.874417304992676 L 2.499788045883179 6.874417304992676 C 1.121155023574829 6.874417304992676 2.379064412139087e-08 5.753262519836426 2.379064412139087e-08 4.374629497528076 L 2.379064412139087e-08 2.499788045883179 C 2.379064412139087e-08 1.121155023574829 1.121155023574829 2.379064412139087e-08 2.499788045883179 2.379064412139087e-08 L 4.374629497528076 2.379064412139087e-08 C 5.753262519836426 2.379064412139087e-08 6.874417304992676 1.121155023574829 6.874417304992676 2.499788045883179 L 6.874417304992676 4.374629497528076 C 6.874417304992676 5.753262519836426 5.753262519836426 6.874417304992676 4.374629497528076 6.874417304992676 Z M 2.499788045883179 1.874841213226318 C 2.155442237854004 1.874841213226318 1.874841213226318 2.155442237854004 1.874841213226318 2.499788045883179 L 1.874841213226318 4.374629497528076 C 1.874841213226318 4.71897554397583 2.155442237854004 4.999576091766357 2.499788045883179 4.999576091766357 L 4.374629497528076 4.999576091766357 C 4.71897554397583 4.999576091766357 4.999576091766357 4.71897554397583 4.999576091766357 4.374629497528076 L 4.999576091766357 2.499788045883179 C 4.999576091766357 2.155442237854004 4.71897554397583 1.874841213226318 4.374629497528076 1.874841213226318 L 2.499788045883179 1.874841213226318 Z M 12.49894046783447 6.874417304992676 L 10.62409973144531 6.874417304992676 C 9.245466232299805 6.874417304992676 8.124311447143555 5.753262519836426 8.124311447143555 4.374629497528076 L 8.124311447143555 2.499788045883179 C 8.124311447143555 1.121155023574829 9.245466232299805 2.379064412139087e-08 10.62409973144531 2.379064412139087e-08 L 12.49894046783447 2.379064412139087e-08 C 13.87757301330566 2.379064412139087e-08 14.99872970581055 1.121155023574829 14.99872970581055 2.499788045883179 L 14.99872970581055 4.374629497528076 C 14.99872970581055 5.753262519836426 13.87757301330566 6.874417304992676 12.49894046783447 6.874417304992676 Z M 10.62409973144531 1.874841213226318 C 10.27912902832031 1.874841213226318 9.999152183532715 2.155442237854004 9.999152183532715 2.499788045883179 L 9.999152183532715 4.374629497528076 C 9.999152183532715 4.71897554397583 10.27912902832031 4.999576091766357 10.62409973144531 4.999576091766357 L 12.49894046783447 4.999576091766357 C 12.84391307830811 4.999576091766357 13.12388896942139 4.71897554397583 13.12388896942139 4.374629497528076 L 13.12388896942139 2.499788045883179 C 13.12388896942139 2.155442237854004 12.84391307830811 1.874841213226318 12.49894046783447 1.874841213226318 L 10.62409973144531 1.874841213226318 Z M 4.374629497528076 14.99872970581055 L 2.499788045883179 14.99872970581055 C 1.121155023574829 14.99872970581055 2.379064412139087e-08 13.87757301330566 2.379064412139087e-08 12.49894046783447 L 2.379064412139087e-08 10.62409973144531 C 2.379064412139087e-08 9.245466232299805 1.121155023574829 8.124311447143555 2.499788045883179 8.124311447143555 L 4.374629497528076 8.124311447143555 C 5.753262519836426 8.124311447143555 6.874417304992676 9.245466232299805 6.874417304992676 10.62409973144531 L 6.874417304992676 12.49894046783447 C 6.874417304992676 13.87757301330566 5.753262519836426 14.99872970581055 4.374629497528076 14.99872970581055 Z M 2.499788045883179 9.999152183532715 C 2.155442237854004 9.999152183532715 1.874841213226318 10.27975368499756 1.874841213226318 10.62409973144531 L 1.874841213226318 12.49894046783447 C 1.874841213226318 12.84328651428223 2.155442237854004 13.12388896942139 2.499788045883179 13.12388896942139 L 4.374629497528076 13.12388896942139 C 4.71897554397583 13.12388896942139 4.999576091766357 12.84328651428223 4.999576091766357 12.49894046783447 L 4.999576091766357 10.62409973144531 C 4.999576091766357 10.27975368499756 4.71897554397583 9.999152183532715 4.374629497528076 9.999152183532715 L 2.499788045883179 9.999152183532715 Z M 10.62409973144531 9.686679840087891 L 10.62409973144531 9.061732292175293 C 10.62409973144531 8.544276237487793 10.20413494110107 8.124311447143555 9.686679840087891 8.124311447143555 L 9.061732292175293 8.124311447143555 C 8.544276237487793 8.124311447143555 8.124311447143555 8.544276237487793 8.124311447143555 9.061732292175293 L 8.124311447143555 9.686679840087891 C 8.124311447143555 10.20413494110107 8.544276237487793 10.62409973144531 9.061732292175293 10.62409973144531 L 9.686679840087891 10.62409973144531 C 10.20413494110107 10.62409973144531 10.62409973144531 10.20413494110107 10.62409973144531 9.686679840087891 Z M 12.49894046783447 11.56151962280273 C 12.49894046783447 11.04406547546387 12.07897567749023 10.62409973144531 11.56151962280273 10.62409973144531 C 11.04406547546387 10.62409973144531 10.62409973144531 11.04406547546387 10.62409973144531 11.56151962280273 C 10.62409973144531 12.07897567749023 11.04406547546387 12.49894046783447 11.56151962280273 12.49894046783447 C 12.07897567749023 12.49894046783447 12.49894046783447 12.07897567749023 12.49894046783447 11.56151962280273 Z M 10.62409973144531 14.06130981445312 L 10.62409973144531 13.43636035919189 C 10.62409973144531 12.91890621185303 10.20413494110107 12.49894046783447 9.686679840087891 12.49894046783447 L 9.061732292175293 12.49894046783447 C 8.544276237487793 12.49894046783447 8.124311447143555 12.91890621185303 8.124311447143555 13.43636035919189 L 8.124311447143555 14.06130981445312 C 8.124311447143555 14.57876300811768 8.544276237487793 14.99872970581055 9.061732292175293 14.99872970581055 L 9.686679840087891 14.99872970581055 C 10.20413494110107 14.99872970581055 10.62409973144531 14.57876300811768 10.62409973144531 14.06130981445312 Z M 14.99872970581055 9.686679840087891 L 14.99872970581055 9.061732292175293 C 14.99872970581055 8.544276237487793 14.57876300811768 8.124311447143555 14.06130981445312 8.124311447143555 L 13.43636035919189 8.124311447143555 C 12.91890621185303 8.124311447143555 12.49894046783447 8.544276237487793 12.49894046783447 9.061732292175293 L 12.49894046783447 9.686679840087891 C 12.49894046783447 10.20413494110107 12.91890621185303 10.62409973144531 13.43636035919189 10.62409973144531 L 14.06130981445312 10.62409973144531 C 14.57876300811768 10.62409973144531 14.99872970581055 10.20413494110107 14.99872970581055 9.686679840087891 Z" fill="rgb(211,211,211)" fill-opacity="1"/></g><g transform="matrix(1 0 0 1 332.998 357)"><g transform="matrix(1 0 0 1 -2 -2)"><path d="M 5.333593368530273 2 C 3.492499113082886 2 2 3.492500066757202 2 5.333593368530273 L 2 8.66718578338623 C 2 9.127470970153809 2.373125076293945 9.500583648681641 2.83339786529541 9.500583648681641 C 3.293671846389771 9.500583648681641 3.666796922683716 9.127472877502441 3.666796922683716 8.66718578338623 L 3.666796922683716 5.333593368530273 C 3.666796922683716 4.413045883178711 4.413045883178711 3.666796922683716 5.333593368530273 3.666796922683716 L 8.66718578338623 3.666796922683716 C 9.127470970153809 3.666796922683716 9.500583648681641 3.293671846389771 9.500583648681641 2.83339786529541 C 9.500583648681641 2.373125076293945 9.127472877502441 2 8.66718578338623 2 L 5.333593368530273 2 Z" fill="rgb(252,252,252)" fill-opacity="1"/></g><g transform="matrix(1 0 0 1 -26.4986 -2)"><path d="M 44.83339691162109 2 C 44.37310791015625 2 44 2.373125076293945 44 2.83339786529541 C 44 3.293671846389771 44.37310791015625 3.666796922683716 44.83339691162109 3.666796922683716 L 48.1669921875 3.666796922683716 C 49.0875244140625 3.666796922683716 49.83378601074219 4.413045883178711 49.83378601074219 5.333593368530273 L 49.83378601074219 8.66718578338623 C 49.83378601074219 9.127470970153809 50.20690155029297 9.500583648681641 50.66718292236328 9.500583648681641 C 51.12747192382812 9.500583648681641 51.50058746337891 9.127472877502441 51.50058746337891 8.66718578338623 L 51.50058746337891 5.333593368530273 C 51.50058746337891 3.492499113082886 50.00809478759766 2 48.1669921875 2 L 44.83339691162109 2 Z" fill="rgb(252,252,252)" fill-opacity="1"/></g><g transform="matrix(1 0 0 1 -2 -26.4986)"><path d="M 3.666796922683716 44.83339691162109 C 3.666796922683716 44.37310791015625 3.293671846389771 44 2.83339786529541 44 C 2.373125076293945 44 2 44.37310791015625 2 44.83339691162109 L 2 48.1669921875 C 2 50.00809478759766 3.492500066757202 51.50058746337891 5.333593368530273 51.50058746337891 L 8.66718578338623 51.50058746337891 C 9.127470970153809 51.50058746337891 9.500583648681641 51.12747192382812 9.500583648681641 50.66718292236328 C 9.500583648681641 50.20690155029297 9.127472877502441 49.83378601074219 8.66718578338623 49.83378601074219 L 5.333593368530273 49.83378601074219 C 4.413045883178711 49.83378601074219 3.666796922683716 49.0875244140625 3.666796922683716 48.1669921875 L 3.666796922683716 44.83339691162109 Z" fill="rgb(252,252,252)" fill-opacity="1"/></g><g transform="matrix(1 0 0 1 -26.4986 -26.4986)"><path d="M 51.50058746337891 44.83339691162109 C 51.50058746337891 44.37310791015625 51.12747192382812 44 50.66718292236328 44 C 50.20690155029297 44 49.83378601074219 44.37310791015625 49.83378601074219 44.83339691162109 L 49.83378601074219 48.1669921875 C 49.83378601074219 49.0875244140625 49.0875244140625 49.83378601074219 48.1669921875 49.83378601074219 L 44.83339691162109 49.83378601074219 C 44.37310791015625 49.83378601074219 44 50.20690155029297 44 50.66718292236328 C 44 51.12747192382812 44.37310791015625 51.50058746337891 44.83339691162109 51.50058746337891 L 48.1669921875 51.50058746337891 C 50.00809478759766 51.50058746337891 51.50058746337891 50.00809478759766 51.50058746337891 48.1669921875 L 51.50058746337891 44.83339691162109 Z" fill="rgb(252,252,252)" fill-opacity="1"/></g></g></g><g transform="matrix(1 0 0 1 381.123 72.543)"><path d="M 21.23022842407227 15.04172897338867 L 3.52086353302002 15.04172897338867 C 3.233346939086914 15.04172897338867 2.999999761581421 14.80837917327881 2.999999761581421 14.5208625793457 C 2.999999761581421 14.23334312438965 3.233346939086914 13.99999713897705 3.52086353302002 13.99999713897705 L 21.23022842407227 13.99999713897705 C 21.51774597167969 13.99999713897705 21.75109481811523 14.23334312438965 21.75109481811523 14.5208625793457 C 21.75109481811523 14.80837917327881 21.51774597167969 15.04172897338867 21.23022842407227 15.04172897338867 Z" fill="rgb(252,52,52)" fill-opacity="1"/></g></g></g></svg>