<svg xmlns="http://www.w3.org/2000/svg" width="15" height="15" viewBox="391 172 15 15"><defs><clipPath id="xd-trash-c44"><rect transform="matrix(1,0,0,1,0,0)" x="0" y="0" width="15" height="15" rx="0" fill="rgb(0,0,0)"/></clipPath></defs><g transform="matrix(1,0,0,1,5,-68)"><g transform="matrix(1,0,0,1,386,240)"><g clip-path="url(#xd-trash-c44)"><g transform="matrix(1,0,0,1,1.68,-0.00)"><g transform="matrix(1,0,0,1,-2.82,-1.13)"><path d="M 10.26 16.13 L 7.01 16.13 C 5.50 16.13 4.24 15.01 4.08 13.51 L 3.11 4.43 C 3.10 4.34 3.13 4.24 3.20 4.17 C 3.26 4.09 3.36 4.05 3.46 4.05 L 13.81 4.05 C 13.91 4.05 14.00 4.09 14.07 4.17 C 14.14 4.24 14.17 4.34 14.16 4.43 L 13.19 13.51 C 13.03 15.01 11.77 16.13 10.26 16.13 Z M 3.84 4.74 L 4.77 13.44 C 4.89 14.58 5.85 15.44 7.01 15.44 L 10.26 15.44 C 11.42 15.44 12.38 14.58 12.50 13.44 L 13.43 4.74 L 3.84 4.74 Z" fill-rule="nonzero" fill="rgb(248,85,85)"/></g><g transform="matrix(1,0,0,1,-2.82,-1.13)"><path d="M 14.10 3.21 L 3.17 3.21 C 2.98 3.21 2.82 3.05 2.82 2.86 C 2.82 2.67 2.98 2.51 3.17 2.51 L 14.10 2.51 C 14.29 2.51 14.45 2.67 14.45 2.86 C 14.45 3.05 14.29 3.21 14.10 3.21 Z" fill-rule="nonzero" fill="rgb(248,85,85)"/></g><g transform="matrix(1,0,0,1,-2.82,-1.13)"><path d="M 8.63 12.18 C 8.44 12.18 8.29 12.03 8.29 11.84 L 8.29 7.69 C 8.29 7.50 8.44 7.35 8.63 7.35 C 8.83 7.35 8.98 7.50 8.98 7.69 L 8.98 11.84 C 8.98 12.03 8.83 12.18 8.63 12.18 Z" fill-rule="nonzero" fill="rgb(248,85,85)"/></g><g transform="matrix(1,0,0,1,-2.82,-1.13)"><path d="M 10.71 12.18 C 10.52 12.18 10.36 12.03 10.36 11.84 L 10.36 7.69 C 10.36 7.50 10.52 7.35 10.71 7.35 C 10.90 7.35 11.05 7.50 11.05 7.69 L 11.05 11.84 C 11.05 12.03 10.90 12.18 10.71 12.18 Z" fill-rule="nonzero" fill="rgb(248,85,85)"/></g><g transform="matrix(1,0,0,1,-2.82,-1.13)"><path d="M 10.02 3.21 C 10.02 3.21 10.02 3.21 10.01 3.21 L 7.26 3.21 C 7.07 3.21 6.91 3.05 6.91 2.86 C 6.91 1.91 7.68 1.13 8.63 1.13 C 9.57 1.13 10.33 1.88 10.36 2.81 C 10.36 2.82 10.36 2.84 10.36 2.86 C 10.36 3.05 10.21 3.21 10.02 3.21 Z M 7.66 2.51 L 9.61 2.51 C 9.47 2.11 9.08 1.83 8.63 1.83 C 8.19 1.83 7.80 2.11 7.66 2.51 Z" fill-rule="nonzero" fill="rgb(248,85,85)"/></g><g transform="matrix(1,0,0,1,-2.82,-1.13)"><path d="M 6.56 12.18 C 6.37 12.18 6.22 12.03 6.22 11.84 L 6.22 7.69 C 6.22 7.50 6.37 7.35 6.56 7.35 C 6.75 7.35 6.91 7.50 6.91 7.69 L 6.91 11.84 C 6.91 12.03 6.75 12.18 6.56 12.18 Z" fill-rule="nonzero" fill="rgb(248,85,85)"/></g></g></g></g></g></svg>