<svg xmlns="http://www.w3.org/2000/svg" width="16" height="16" viewBox="24 349 16 16"><defs><clipPath id="xd-txWithdrawal-c1"><path d="M0 0h16v16h-16z" /></clipPath></defs><g transform="translate(4548 24835)"><g transform="matrix(1 0 0 1 -4670 -24875)"><g transform="matrix(1 0 0 1 146 389)"><g clip-path="url(#xd-txWithdrawal-c1)"><g transform="matrix(1 0 0 1 0.000188589 2.10612)"><g transform="matrix(1 0 0 1 -0.466962 -2.30965)"><path d="M 15.52214336395264 6.464321613311768 L 14.90879726409912 6.464321613311768 C 14.97390079498291 6.222412109375 14.93986511230469 5.964528560638428 14.81422901153564 5.747793674468994 C 14.68859195709229 5.531058788299561 14.48172569274902 5.373361110687256 14.23945140838623 5.309631824493408 L 3.138690948486328 2.341837882995605 C 2.89675760269165 2.276936292648315 2.638939380645752 2.311019897460938 2.422182559967041 2.43656063079834 C 2.20542573928833 2.5621018409729 2.04756498336792 2.768769502639771 1.983467578887939 3.010917901992798 L 0.4994372427463531 8.55903148651123 C 0.4341819584369659 8.80135440826416 0.4680992066860199 9.059688568115234 0.5936951041221619 9.276954650878906 C 0.7192908525466919 9.494220733642578 0.9262275695800781 9.652536392211914 1.168783664703369 9.716921806335449 L 3.086156606674194 10.22893142700195 L 3.086156606674194 13.15299129486084 C 3.087331295013428 13.67428779602051 3.509944915771484 14.0964241027832 4.031241893768311 14.09701061248779 L 15.52214431762695 14.09701061248779 C 16.04339599609375 14.09642219543457 16.46593284606934 13.67424297332764 16.46696281433105 13.15299129486084 L 16.46696281433105 7.409140586853027 C 16.46637344360352 6.887575626373291 16.04370880126953 6.464909553527832 15.52214527130127 6.464321136474609 Z M 1.306386470794678 9.20171070098877 C 1.200729370117188 9.173755645751953 1.110547184944153 9.104889869689941 1.055757880210876 9.010322570800781 C 1.000968456268311 8.915754318237305 0.9860798716545105 8.803266525268555 1.014380216598511 8.697700500488281 L 2.498677492141724 3.147987365722656 C 2.526406049728394 3.042397499084473 2.595267534255981 2.952311754226685 2.689881563186646 2.897848844528198 C 2.783551216125488 2.843064308166504 2.895321130752563 2.828264474868774 3.000020980834961 2.856781482696533 L 14.10371398925781 5.825108528137207 C 14.20921230316162 5.852729797363281 14.29927635192871 5.921408653259277 14.3538293838501 6.015837669372559 C 14.40838241577148 6.110266208648682 14.42289066314697 6.222594738006592 14.39411926269531 6.327785491943359 L 14.35811996459961 6.464321136474609 L 4.031242370605469 6.464321136474609 C 3.509572982788086 6.464762687683105 3.086745500564575 6.887470245361328 3.086156606674194 7.409140110015869 L 3.086156845092773 9.67585277557373 L 1.306386470794678 9.20171070098877 Z M 15.93361949920654 13.15299224853516 C 15.93288516998291 13.37980937957764 15.74896240234375 13.56337547302246 15.52214431762695 13.56366729736328 L 4.031242370605469 13.56366729736328 C 3.803966045379639 13.56337261199951 3.619795083999634 13.3792028427124 3.619501352310181 13.1519250869751 L 3.619501113891602 7.409142017364502 C 3.619795083999634 7.181909561157227 3.804009199142456 6.997814178466797 4.031242370605469 6.99766731262207 L 15.52214431762695 6.99766731262207 C 15.74927425384521 6.997961521148682 15.93332576751709 7.182013034820557 15.93361949920654 7.409143447875977 L 15.93361949920654 13.15299224853516 Z" fill="rgb(81,58,175)" fill-opacity="1"/></g><g transform="matrix(1 0 0 1 0.404348 -1.60555)"><path d="M 8.90538215637207 7.238381862640381 C 7.613261222839355 7.238381862640381 6.566034317016602 8.285688400268555 6.56613302230835 9.577539443969727 C 6.56613302230835 10.86921501159668 7.613439559936523 11.91644287109375 8.905292510986328 11.91634368896484 C 10.19696712493896 11.91634368896484 11.24419498443604 10.8690357208252 11.24409580230713 9.577184677124023 C 11.24252796173096 8.286184310913086 10.19638252258301 7.239997386932373 8.90538215637207 7.238379955291748 Z M 8.90538215637207 11.38273239135742 C 7.907855033874512 11.38273239135742 7.099430084228516 10.57426643371582 7.099478721618652 9.577007293701172 C 7.099478721618652 8.579835891723633 7.907943725585938 7.771410465240479 8.905203819274902 7.771459102630615 C 9.902376174926758 7.771459102630615 10.71080112457275 8.579925537109375 10.71075248718262 9.577184677124023 C 10.70952796936035 10.57378387451172 9.901981353759766 11.38141059875488 8.905380249023438 11.38273429870605 Z" fill="rgb(81,58,175)" fill-opacity="1"/></g><g transform="matrix(1 0 0 1 1.07543 -1.46045)"><path d="M 12.44158744812012 8.25410270690918 C 11.79105663299561 8.254103660583496 11.26369667053223 8.781462669372559 11.26369667053223 9.43199348449707 C 11.26369667053223 10.0825252532959 11.79105663299561 10.60988521575928 12.44158744812012 10.60988521575928 C 13.09211921691895 10.60988521575928 13.61947822570801 10.0825252532959 13.61947822570801 9.43199348449707 C 13.61889171600342 8.781705856323242 13.09187602996826 8.254690170288086 12.44158840179443 8.25410270690918 Z M 12.44158744812012 10.07627296447754 C 12.08557891845703 10.07627391815186 11.79699230194092 9.787646293640137 11.79704093933105 9.431638717651367 C 11.79704093933105 9.075719833374023 12.08566761016846 8.787132263183594 12.44167613983154 8.78718090057373 C 12.79777240753174 8.787278175354004 13.08627986907959 9.075984001159668 13.08613395690918 9.431992530822754 C 13.08569145202637 9.787739753723145 12.79733467102051 10.07597923278809 12.44158744812012 10.07627296447754 Z" fill="rgb(81,58,175)" fill-opacity="1"/></g><g transform="matrix(1 0 0 1 0.0235738 -1.46048)"><path d="M 5.078336715698242 10.60965061187744 C 5.729203224182129 10.60965061187744 6.256591796875 10.08218193054199 6.25649356842041 9.431581497192383 C 6.25649356842041 8.781159400939941 5.729025840759277 8.253771781921387 5.078424453735352 8.25386905670166 C 4.42800235748291 8.25386905670166 3.900614023208618 8.781337738037109 3.900712728500366 9.431937217712402 C 3.901544809341431 10.08199119567871 4.428284168243408 10.60876941680908 5.078336238861084 10.60965156555176 Z M 5.078336715698242 8.787479400634766 C 5.434344291687012 8.787332534790039 5.723052024841309 9.075839996337891 5.72314977645874 9.431848526000977 C 5.72324800491333 9.787857055664062 5.434700489044189 10.07652378082275 5.078692436218262 10.07657241821289 C 4.72259521484375 10.07657241821289 4.43400764465332 9.787945747375488 4.434056758880615 9.431937217712402 C 4.434399127960205 9.076224327087402 4.722623825073242 8.787919998168945 5.078336715698242 8.787479400634766 Z" fill="rgb(81,58,175)" fill-opacity="1"/></g><g transform="matrix(1 0 0 1 0.00600689 -1.03127)"><path d="M 4.184952259063721 11.25833034515381 L 4.044415473937988 11.25833034515381 C 3.897136688232422 11.25833034515381 3.777743339538574 11.37772369384766 3.777743339538574 11.52500247955322 C 3.777743339538574 11.67228126525879 3.897136688232422 11.79167461395264 4.044415473937988 11.79167461395264 L 4.184952259063721 11.79167461395264 C 4.332230567932129 11.79167461395264 4.451623916625977 11.67228126525879 4.451623916625977 11.52500247955322 C 4.451623916625977 11.37772369384766 4.332230567932129 11.25833034515381 4.184952259063721 11.25833034515381 Z" fill="rgb(81,58,175)" fill-opacity="1"/></g><g transform="matrix(1 0 0 1 0.107509 -1.03127)"><path d="M 7.129912853240967 11.25833034515381 L 4.75493049621582 11.25833034515381 C 4.607651710510254 11.25833034515381 4.488258838653564 11.37772369384766 4.488258838653564 11.52500247955322 C 4.488258838653564 11.67228126525879 4.607651710510254 11.79167461395264 4.75493049621582 11.79167461395264 L 7.129912853240967 11.79167461395264 C 7.277191638946533 11.79167461395264 7.396584987640381 11.67228126525879 7.396584987640381 11.52500247955322 C 7.396584987640381 11.37772369384766 7.277191638946533 11.25833034515381 7.129912853240967 11.25833034515381 Z" fill="rgb(81,58,175)" fill-opacity="1"/></g></g></g></g></g></g></svg>